<mxfile host="Electron" agent="Mozilla/5.0 (Windows NT 10.0; Win64; x64) AppleWebKit/537.36 (KHTML, like Gecko) draw.io/24.4.8 Chrome/124.0.6367.207 Electron/30.0.6 Safari/537.36" modified="2024-09-20T00:34:53.091Z" version="24.4.8" etag="nwAXEvMQAovwoK0fvERz" type="device">
  <diagram name="PÃ¡gina-1" id="4yKsNjSJXNqRrN8qenWa">
    <mxGraphModel dx="1195" dy="703" grid="1" gridSize="10" guides="1" tooltips="1" connect="1" arrows="1" fold="1" page="1" pageScale="1" pageWidth="827" pageHeight="1169" math="0" shadow="0">
      <root>
        <mxCell id="0" />
        <mxCell id="1" parent="0" />
        <mxCell id="9FSKZ9-un1HYUBWsrS5P-1" value="USUARIO" style="shape=umlActor;verticalLabelPosition=bottom;verticalAlign=top;html=1;outlineConnect=0;" parent="1" vertex="1">
          <mxGeometry x="70" y="170" width="30" height="60" as="geometry" />
        </mxCell>
        <mxCell id="9FSKZ9-un1HYUBWsrS5P-2" value="MOSTRAR CALENDARIO DE&amp;nbsp; PARTIDOS" style="ellipse;whiteSpace=wrap;html=1;" parent="1" vertex="1">
          <mxGeometry x="270" y="260" width="120" height="80" as="geometry" />
        </mxCell>
        <mxCell id="9FSKZ9-un1HYUBWsrS5P-3" value="ACTUALIZAR&lt;div&gt;INFORMACION&lt;/div&gt;" style="ellipse;whiteSpace=wrap;html=1;" parent="1" vertex="1">
          <mxGeometry x="520" y="380" width="120" height="80" as="geometry" />
        </mxCell>
        <mxCell id="9FSKZ9-un1HYUBWsrS5P-4" value="NOTIFICAR RESULTADO" style="ellipse;whiteSpace=wrap;html=1;" parent="1" vertex="1">
          <mxGeometry x="650" y="40" width="120" height="80" as="geometry" />
        </mxCell>
        <mxCell id="9FSKZ9-un1HYUBWsrS5P-11" value="&amp;lt;&amp;lt;include&amp;gt;&amp;gt;" style="edgeStyle=orthogonalEdgeStyle;rounded=0;orthogonalLoop=1;jettySize=auto;html=1;exitX=1;exitY=0.5;exitDx=0;exitDy=0;entryX=0;entryY=0.5;entryDx=0;entryDy=0;" parent="1" source="9FSKZ9-un1HYUBWsrS5P-5" target="9FSKZ9-un1HYUBWsrS5P-7" edge="1">
          <mxGeometry relative="1" as="geometry" />
        </mxCell>
        <mxCell id="9FSKZ9-un1HYUBWsrS5P-5" value="LISTAR JUGADORES CONVOCADOS" style="ellipse;whiteSpace=wrap;html=1;" parent="1" vertex="1">
          <mxGeometry x="35" y="30" width="120" height="80" as="geometry" />
        </mxCell>
        <mxCell id="9FSKZ9-un1HYUBWsrS5P-6" value="DETALLAR&amp;nbsp;&lt;div&gt;&amp;nbsp;GRUPOS&lt;/div&gt;" style="ellipse;whiteSpace=wrap;html=1;" parent="1" vertex="1">
          <mxGeometry x="270" y="150" width="120" height="80" as="geometry" />
        </mxCell>
        <mxCell id="9FSKZ9-un1HYUBWsrS5P-7" value="MOSTRAR&lt;div&gt;&amp;nbsp; EQUIPOS&lt;/div&gt;" style="ellipse;whiteSpace=wrap;html=1;" parent="1" vertex="1">
          <mxGeometry x="270" y="30" width="120" height="80" as="geometry" />
        </mxCell>
        <mxCell id="9FSKZ9-un1HYUBWsrS5P-8" value="SISTEMA&amp;nbsp;&lt;div&gt;FIFA&lt;div&gt;&lt;br&gt;&lt;/div&gt;&lt;/div&gt;" style="shape=umlActor;verticalLabelPosition=bottom;verticalAlign=top;html=1;outlineConnect=0;" parent="1" vertex="1">
          <mxGeometry x="750" y="500" width="30" height="60" as="geometry" />
        </mxCell>
        <mxCell id="9FSKZ9-un1HYUBWsrS5P-17" value="" style="edgeStyle=orthogonalEdgeStyle;rounded=0;orthogonalLoop=1;jettySize=auto;html=1;" parent="1" source="9FSKZ9-un1HYUBWsrS5P-9" target="9FSKZ9-un1HYUBWsrS5P-3" edge="1">
          <mxGeometry relative="1" as="geometry">
            <Array as="points">
              <mxPoint x="730" y="280" />
            </Array>
          </mxGeometry>
        </mxCell>
        <mxCell id="9FSKZ9-un1HYUBWsrS5P-9" value="RELOJ&amp;nbsp;&lt;div&gt;CADA 30 MIN&lt;/div&gt;" style="shape=umlActor;verticalLabelPosition=bottom;verticalAlign=top;html=1;outlineConnect=0;" parent="1" vertex="1">
          <mxGeometry x="750" y="250" width="30" height="60" as="geometry" />
        </mxCell>
        <mxCell id="9FSKZ9-un1HYUBWsrS5P-16" style="edgeStyle=orthogonalEdgeStyle;rounded=0;orthogonalLoop=1;jettySize=auto;html=1;exitX=1;exitY=1;exitDx=0;exitDy=0;entryX=0.5;entryY=0;entryDx=0;entryDy=0;entryPerimeter=0;" parent="1" source="9FSKZ9-un1HYUBWsrS5P-3" target="9FSKZ9-un1HYUBWsrS5P-8" edge="1">
          <mxGeometry relative="1" as="geometry" />
        </mxCell>
        <mxCell id="9FSKZ9-un1HYUBWsrS5P-21" value="&amp;lt;&amp;lt;extend&amp;gt;&amp;gt;&lt;div&gt;PT1&lt;/div&gt;&lt;div&gt;&amp;nbsp;Quiere ser notificado&amp;nbsp;&lt;/div&gt;" style="endArrow=classic;html=1;rounded=0;exitX=-0.035;exitY=0.41;exitDx=0;exitDy=0;exitPerimeter=0;entryX=1;entryY=0.5;entryDx=0;entryDy=0;" parent="1" source="9FSKZ9-un1HYUBWsrS5P-4" target="9FSKZ9-un1HYUBWsrS5P-7" edge="1">
          <mxGeometry width="50" height="50" relative="1" as="geometry">
            <mxPoint x="390" y="460" as="sourcePoint" />
            <mxPoint x="440" y="40" as="targetPoint" />
          </mxGeometry>
        </mxCell>
        <mxCell id="9FSKZ9-un1HYUBWsrS5P-22" value="&lt;span style=&quot;color: rgb(240, 240, 240); font-family: Helvetica; font-size: 11px; font-style: normal; font-variant-ligatures: normal; font-variant-caps: normal; font-weight: 400; letter-spacing: normal; orphans: 2; text-align: center; text-indent: 0px; text-transform: none; widows: 2; word-spacing: 0px; -webkit-text-stroke-width: 0px; white-space: nowrap; background-color: rgb(24, 20, 29); text-decoration-thickness: initial; text-decoration-style: initial; text-decoration-color: initial; display: inline !important; float: none;&quot;&gt;&amp;lt;&amp;lt;extend&amp;gt;&amp;gt;&lt;/span&gt;&lt;div style=&quot;forced-color-adjust: none; border-color: rgb(0, 0, 0); color: rgb(240, 240, 240); font-family: Helvetica; font-size: 11px; font-style: normal; font-variant-ligatures: normal; font-variant-caps: normal; font-weight: 400; letter-spacing: normal; orphans: 2; text-align: center; text-indent: 0px; text-transform: none; widows: 2; word-spacing: 0px; -webkit-text-stroke-width: 0px; white-space: nowrap; text-decoration-thickness: initial; text-decoration-style: initial; text-decoration-color: initial;&quot;&gt;PT1&lt;/div&gt;&lt;div style=&quot;forced-color-adjust: none; border-color: rgb(0, 0, 0); color: rgb(240, 240, 240); font-family: Helvetica; font-size: 11px; font-style: normal; font-variant-ligatures: normal; font-variant-caps: normal; font-weight: 400; letter-spacing: normal; orphans: 2; text-align: center; text-indent: 0px; text-transform: none; widows: 2; word-spacing: 0px; -webkit-text-stroke-width: 0px; white-space: nowrap; text-decoration-thickness: initial; text-decoration-style: initial; text-decoration-color: initial;&quot;&gt;&amp;nbsp;Quiere ser notificado&amp;nbsp;&lt;/div&gt;" style="endArrow=classic;html=1;rounded=0;entryX=1.014;entryY=0.41;entryDx=0;entryDy=0;entryPerimeter=0;" parent="1" target="9FSKZ9-un1HYUBWsrS5P-6" edge="1" source="9FSKZ9-un1HYUBWsrS5P-4">
          <mxGeometry width="50" height="50" relative="1" as="geometry">
            <mxPoint x="390" y="200" as="sourcePoint" />
            <mxPoint x="640" y="110" as="targetPoint" />
          </mxGeometry>
        </mxCell>
        <mxCell id="9FSKZ9-un1HYUBWsrS5P-23" value="&lt;span style=&quot;color: rgb(240, 240, 240); font-family: Helvetica; font-size: 11px; font-style: normal; font-variant-ligatures: normal; font-variant-caps: normal; font-weight: 400; letter-spacing: normal; orphans: 2; text-align: center; text-indent: 0px; text-transform: none; widows: 2; word-spacing: 0px; -webkit-text-stroke-width: 0px; white-space: nowrap; background-color: rgb(24, 20, 29); text-decoration-thickness: initial; text-decoration-style: initial; text-decoration-color: initial; display: inline !important; float: none;&quot;&gt;&amp;lt;&amp;lt;extend&amp;gt;&amp;gt;&lt;/span&gt;&lt;div style=&quot;forced-color-adjust: none; border-color: rgb(0, 0, 0); color: rgb(240, 240, 240); font-family: Helvetica; font-size: 11px; font-style: normal; font-variant-ligatures: normal; font-variant-caps: normal; font-weight: 400; letter-spacing: normal; orphans: 2; text-align: center; text-indent: 0px; text-transform: none; widows: 2; word-spacing: 0px; -webkit-text-stroke-width: 0px; white-space: nowrap; text-decoration-thickness: initial; text-decoration-style: initial; text-decoration-color: initial;&quot;&gt;PT1&lt;/div&gt;&lt;div style=&quot;forced-color-adjust: none; border-color: rgb(0, 0, 0); color: rgb(240, 240, 240); font-family: Helvetica; font-size: 11px; font-style: normal; font-variant-ligatures: normal; font-variant-caps: normal; font-weight: 400; letter-spacing: normal; orphans: 2; text-align: center; text-indent: 0px; text-transform: none; widows: 2; word-spacing: 0px; -webkit-text-stroke-width: 0px; white-space: nowrap; text-decoration-thickness: initial; text-decoration-style: initial; text-decoration-color: initial;&quot;&gt;&amp;nbsp;Quiere ser notificado&amp;nbsp;&lt;/div&gt;" style="endArrow=classic;html=1;rounded=0;exitX=0.271;exitY=0.952;exitDx=0;exitDy=0;exitPerimeter=0;entryX=1;entryY=0.5;entryDx=0;entryDy=0;" parent="1" edge="1" target="9FSKZ9-un1HYUBWsrS5P-2" source="9FSKZ9-un1HYUBWsrS5P-4">
          <mxGeometry x="-0.0229" y="-16" width="50" height="50" relative="1" as="geometry">
            <mxPoint x="390" y="300" as="sourcePoint" />
            <mxPoint x="460" y="320" as="targetPoint" />
            <mxPoint as="offset" />
          </mxGeometry>
        </mxCell>
        <mxCell id="9FSKZ9-un1HYUBWsrS5P-27" style="edgeStyle=orthogonalEdgeStyle;rounded=0;orthogonalLoop=1;jettySize=auto;html=1;exitX=0.5;exitY=0;exitDx=0;exitDy=0;exitPerimeter=0;entryX=0.438;entryY=1.025;entryDx=0;entryDy=0;entryPerimeter=0;" parent="1" source="9FSKZ9-un1HYUBWsrS5P-1" target="9FSKZ9-un1HYUBWsrS5P-5" edge="1">
          <mxGeometry relative="1" as="geometry">
            <mxPoint x="80" y="100" as="targetPoint" />
            <Array as="points">
              <mxPoint x="85" y="150" />
              <mxPoint x="88" y="150" />
            </Array>
          </mxGeometry>
        </mxCell>
        <mxCell id="9FSKZ9-un1HYUBWsrS5P-29" value="" style="endArrow=none;html=1;rounded=0;" parent="1" edge="1">
          <mxGeometry width="50" height="50" relative="1" as="geometry">
            <mxPoint x="100" y="170" as="sourcePoint" />
            <mxPoint x="270" y="190" as="targetPoint" />
          </mxGeometry>
        </mxCell>
        <mxCell id="9FSKZ9-un1HYUBWsrS5P-30" value="" style="endArrow=none;html=1;rounded=0;entryX=0;entryY=0.625;entryDx=0;entryDy=0;entryPerimeter=0;" parent="1" target="9FSKZ9-un1HYUBWsrS5P-7" edge="1">
          <mxGeometry width="50" height="50" relative="1" as="geometry">
            <mxPoint x="100" y="170" as="sourcePoint" />
            <mxPoint x="150" y="120" as="targetPoint" />
          </mxGeometry>
        </mxCell>
        <mxCell id="9FSKZ9-un1HYUBWsrS5P-32" value="" style="endArrow=none;html=1;rounded=0;entryX=0;entryY=0;entryDx=0;entryDy=0;" parent="1" target="9FSKZ9-un1HYUBWsrS5P-2" edge="1">
          <mxGeometry width="50" height="50" relative="1" as="geometry">
            <mxPoint x="110" y="170" as="sourcePoint" />
            <mxPoint x="440" y="410" as="targetPoint" />
          </mxGeometry>
        </mxCell>
      </root>
    </mxGraphModel>
  </diagram>
</mxfile>
